<svg width="350" height="auto" viewBox="0 0 1124 1002" fill="#ccc" style="transform:rotate(-25deg);position:relative;top:-20px;left:-50px" xmlns="http://www.w3.org/2000/svg">
<path d="M763.514 482.651C763.714 482.151 763.614 482.151 762.914 484.151C762.914 484.151 762.914 484.151 762.914 484.051C763.114 483.651 763.314 483.151 763.514 482.651Z" fill="#ccc"/>
<path d="M411.114 483.851C411.814 473.051 401.114 462.751 390.414 463.151C386.914 463.351 383.714 464.151 381.014 465.651C381.214 438.251 382.514 410.851 383.614 383.451C384.614 360.851 385.414 338.251 386.214 315.551C425.214 287.551 462.714 257.551 496.014 222.851C515.414 202.651 534.614 179.851 543.714 152.951C552.214 127.751 548.614 102.151 533.914 80.051C520.214 59.451 499.914 43.251 478.914 30.751C456.614 17.451 431.414 7.05097 405.714 2.55097C399.614 1.45097 393.414 0.650967 387.114 0.0509668C385.314 -0.149033 383.914 0.250967 382.814 1.05097C380.114 1.85097 377.914 4.05097 377.814 7.65097C376.214 88.951 372.014 170.151 367.014 251.351C365.414 277.551 363.714 303.651 362.014 329.751C358.914 331.851 355.814 334.051 352.814 336.151C297.914 373.951 242.614 411.051 188.014 449.351C131.714 488.751 75.8142 528.751 20.7142 569.851C13.9142 574.851 7.21421 579.951 0.414214 585.051C-0.585786 585.851 0.414214 587.551 1.41421 586.751C58.2142 544.151 115.714 502.551 173.814 461.751C230.914 421.651 288.914 382.751 346.514 343.451C351.614 339.951 356.714 336.451 361.814 332.951C360.914 345.851 360.114 358.751 359.114 371.651C356.514 408.051 353.414 444.351 352.614 480.851C352.114 501.151 352.314 521.551 353.814 541.851C354.514 552.051 355.714 562.251 356.814 572.351C357.514 578.051 358.214 583.751 359.114 589.451C359.314 590.551 359.414 591.751 359.614 592.851C359.714 593.551 359.914 594.551 359.914 594.351C360.214 596.851 360.314 599.351 360.714 601.851C361.714 609.551 365.614 617.251 373.914 619.151C381.914 620.951 389.814 617.851 394.214 610.851C406.114 591.951 408.014 567.151 409.114 545.451C410.414 524.851 409.814 504.351 411.114 483.851ZM391.014 144.251C391.814 101.351 392.314 58.351 392.214 15.451C415.014 17.651 437.814 23.151 459.114 31.451C482.514 40.551 504.614 53.551 521.614 72.251C539.614 92.051 549.914 117.551 543.414 144.251C536.614 172.351 517.314 196.151 498.114 216.851C464.614 252.851 426.314 283.751 386.414 312.451C388.414 256.451 389.914 200.351 391.014 144.251Z" fill="#ccc"/>
<path d="M1000.51 482.251C1000.81 482.451 1001.21 482.751 1001.51 482.951C1001.61 483.051 1001.41 482.851 1000.51 482.251C1000.41 482.151 1000.41 482.151 1000.51 482.251Z" fill="#ccc"/>
<path d="M1049.31 321.151C1049.21 321.051 1049.21 320.951 1049.21 320.851C1049.11 320.851 1049.11 320.751 1049.01 320.751C1049.11 320.951 1049.21 321.051 1049.31 321.151Z" fill="#ccc"/>
<path d="M1100.11 390.951C1091.81 389.051 1082.71 393.451 1080.51 402.051C1077.91 412.251 1075.31 422.351 1072.21 432.351C1070.31 438.251 1068.31 444.151 1066.01 449.951C1065.71 450.651 1065.51 451.251 1065.21 451.951C1065.11 452.351 1065.01 452.651 1065.01 452.751C1064.61 453.551 1064.11 454.351 1063.81 455.051C1062.51 457.951 1061.01 460.851 1059.51 463.651C1058.21 466.151 1056.71 468.551 1055.21 470.951C1054.41 472.251 1053.51 473.551 1052.61 474.851C1052.31 475.251 1052.01 475.651 1051.71 476.151C1049.91 478.251 1048.11 480.351 1046.11 482.251C1045.21 483.151 1044.21 483.951 1043.21 484.851C1043.11 484.951 1043.11 484.951 1043.01 485.051C1042.61 485.351 1042.11 485.651 1042.01 485.751C1040.01 487.051 1037.91 488.051 1035.91 489.251C1035.51 489.451 1035.01 489.551 1034.61 489.751C1033.21 490.151 1031.91 490.551 1030.51 490.851C1030.21 490.951 1029.81 490.951 1029.51 491.051C1028.21 491.051 1026.81 491.151 1025.51 491.151C1025.21 491.151 1022.51 490.951 1021.61 490.951C1020.71 490.751 1019.91 490.651 1019.01 490.451C1017.31 490.051 1015.71 489.651 1014.11 489.151C1013.41 488.951 1010.91 488.051 1010.61 487.951C1007.71 486.651 1004.81 485.151 1002.11 483.351C1002.01 483.251 1001.91 483.151 1001.81 483.151C1001.71 483.051 1001.11 482.751 1000.81 482.451C1000.61 482.351 1000.41 482.151 1000.31 482.051C1000.51 482.151 1000.61 482.251 1000.81 482.351C999.714 481.351 998.614 480.351 997.514 479.351C996.514 478.251 995.514 477.151 994.514 476.051C997.214 479.251 993.814 474.851 993.214 473.851C992.414 472.551 991.714 471.351 991.114 470.051C991.114 469.951 991.014 469.951 991.014 469.851C991.114 470.051 990.814 469.451 990.514 468.851C990.414 468.551 990.314 468.351 990.114 468.051C990.214 468.351 990.314 468.551 990.414 468.751C990.314 468.551 990.214 468.351 990.214 468.251C989.214 465.251 988.314 462.351 987.714 459.251C987.714 459.151 987.714 459.051 987.614 458.751C987.714 459.451 987.414 457.751 987.414 457.251C987.314 455.751 987.214 454.251 987.114 452.751C987.014 449.451 987.314 446.351 987.514 443.051C987.714 442.151 987.814 441.251 988.014 440.351C988.314 438.851 988.714 437.351 989.114 435.851C989.514 434.351 989.914 432.851 990.414 431.451C990.814 430.351 993.014 425.351 991.414 428.551C992.714 425.751 994.114 423.051 995.714 420.351C998.214 416.151 1000.41 413.151 1002.81 410.351C1014.71 396.151 1029.51 384.751 1043.21 372.351C1055.11 361.551 1069.01 347.851 1070.81 331.151C1071.51 324.851 1070.21 318.551 1066.61 313.251C1065.81 312.051 1064.91 310.951 1064.01 309.851C1063.41 309.151 1062.11 307.851 1063.41 309.351C1061.21 306.851 1059.51 304.951 1056.81 303.051C1039.91 290.951 1014.51 292.851 995.014 295.451C970.214 298.651 945.914 305.051 922.614 314.251C913.314 317.951 904.114 322.051 895.414 326.951C884.414 333.251 874.614 342.351 866.214 351.851C855.714 363.751 846.214 378.551 841.714 394.151C843.214 383.651 845.814 373.251 849.514 363.251C872.214 301.251 933.914 262.351 990.214 234.451C1023.81 217.851 1058.71 204.251 1093.81 191.351C1098.11 189.751 1101.11 185.551 1099.81 180.751C1098.71 176.551 1093.61 173.151 1089.21 174.751C1022.71 199.451 954.614 226.651 899.314 272.351C873.314 293.851 850.914 320.151 837.814 351.551C833.114 362.751 829.914 374.551 828.014 386.551C825.714 370.451 823.514 354.451 822.314 338.251C819.414 299.551 820.714 260.351 827.814 222.151C834.414 186.151 846.214 151.551 862.514 118.851C878.214 87.451 897.614 58.451 918.414 30.251C923.814 22.951 929.214 15.751 934.614 8.55098C934.714 8.45098 934.514 8.25098 934.414 8.35098C891.714 63.351 848.314 119.051 824.614 185.351C811.414 222.251 804.014 260.951 801.114 299.951C799.714 319.151 799.314 338.551 800.314 357.851C800.714 365.651 801.414 373.451 802.114 381.251C795.114 366.051 785.214 352.351 774.214 339.651C763.514 327.351 751.614 316.751 737.114 309.151C707.314 293.451 670.714 286.151 637.414 293.151C630.114 294.651 623.014 297.351 616.314 300.751C610.614 303.651 608.514 311.451 610.914 317.051C613.314 322.451 620.214 327.151 626.314 324.651C629.214 323.451 632.114 322.451 635.114 321.751C636.714 321.351 638.214 321.051 639.814 320.751C640.414 320.651 641.114 320.551 641.714 320.451C642.014 320.451 642.414 320.351 642.814 320.351C650.014 319.751 657.114 319.751 664.314 320.451C665.214 320.551 666.014 320.651 666.814 320.751C666.914 320.751 666.914 320.751 667.014 320.751C668.814 321.051 670.614 321.351 672.414 321.651C676.014 322.351 679.614 323.151 683.214 324.151C690.614 326.151 697.814 328.851 704.914 331.651C705.614 331.951 706.414 332.351 707.114 332.651C708.714 333.351 710.314 334.151 711.914 334.951C715.214 336.651 718.514 338.451 721.614 340.351C723.814 341.651 728.514 343.751 729.914 345.951C729.914 345.951 727.214 343.751 728.714 345.051C729.314 345.551 729.914 346.051 730.514 346.551C731.814 347.651 733.114 348.751 734.414 349.951C736.914 352.351 739.214 354.951 741.414 357.551C742.814 359.151 744.214 360.851 745.614 362.451C746.314 363.251 747.014 364.151 747.614 364.951C747.814 365.151 748.914 366.651 749.414 367.251C749.714 367.651 750.114 368.151 750.214 368.351C750.814 369.251 751.514 370.051 752.114 370.951C753.314 372.751 754.614 374.451 755.714 376.251C758.214 380.051 760.514 383.951 762.714 388.051C763.714 389.951 764.714 391.851 765.614 393.751C765.914 394.451 766.314 395.251 766.614 395.951C766.714 396.151 766.714 396.251 766.814 396.451C768.314 400.451 769.814 404.451 770.914 408.551C771.514 410.651 772.014 412.751 772.414 414.851C772.614 415.951 773.114 420.251 773.114 419.051C773.414 423.251 773.614 427.451 773.514 431.651C773.414 435.851 773.214 440.051 772.814 444.351C772.714 445.351 772.614 446.451 772.514 447.451C772.514 447.751 772.414 448.551 772.314 449.151C772.314 449.151 772.314 449.151 772.314 449.251C772.014 450.751 771.814 452.251 771.514 453.751C770.114 461.551 768.314 469.251 765.714 476.751C765.114 478.551 764.414 480.451 763.714 482.251C763.614 482.551 763.414 482.951 763.314 483.251C763.214 483.651 763.014 484.151 762.814 484.551C762.814 484.651 762.814 484.651 762.714 484.751C762.714 484.851 762.614 484.951 762.614 484.951C762.614 484.851 762.614 484.851 762.714 484.751C761.014 488.451 759.314 492.151 757.314 495.651C753.414 502.851 749.014 509.651 744.214 516.251C743.714 516.951 743.214 517.651 742.614 518.351C742.514 518.451 742.414 518.551 742.314 518.651C741.014 520.251 739.714 521.851 738.414 523.351C735.714 526.551 733.014 529.651 730.114 532.651C724.514 538.651 718.614 544.251 712.514 549.751C709.514 552.351 706.514 554.951 703.514 557.451C702.014 558.751 700.414 559.951 698.914 561.151C698.714 561.251 698.014 561.851 697.514 562.251C696.814 562.751 695.614 563.651 695.614 563.651C689.114 568.451 682.514 572.951 675.614 577.151C668.514 581.451 661.214 585.551 653.814 589.251C645.514 593.351 640.514 595.551 633.314 598.251C602.414 609.951 574.114 615.051 541.414 611.051C540.514 610.951 539.614 610.751 538.714 610.651C536.814 610.351 534.914 609.951 533.014 609.651C528.714 608.751 524.414 607.751 520.214 606.551C512.414 604.351 506.114 601.951 499.914 598.951C492.214 595.251 484.914 590.951 477.914 586.151C476.514 585.251 475.214 584.251 473.814 583.251C473.614 583.151 473.414 582.951 473.314 582.851C472.714 582.351 472.014 581.851 471.414 581.351C468.514 578.951 465.714 576.451 463.114 573.751C461.014 571.551 458.914 569.351 457.014 567.051C456.514 566.451 456.014 565.851 455.514 565.151C455.514 565.051 455.414 564.951 455.314 564.851C454.214 563.451 453.214 561.951 452.214 560.451C448.614 555.051 445.514 549.351 442.914 543.451C442.914 543.351 442.914 543.351 442.814 543.351C442.814 543.251 442.814 543.251 442.714 543.151C442.514 542.651 442.314 542.051 442.014 541.551C441.414 540.051 440.914 538.651 440.414 537.151C439.214 533.751 438.214 530.351 437.414 526.951C436.714 524.051 436.014 521.151 435.514 518.251C434.814 514.551 434.514 512.451 434.214 509.951C428.414 457.251 446.414 402.551 474.014 357.551C477.114 352.551 480.314 347.751 483.714 342.951C486.414 339.151 484.414 333.451 480.614 331.251C476.214 328.651 471.614 330.551 468.914 334.351C452.114 356.951 439.214 382.351 429.314 408.651C418.914 436.451 411.714 465.651 411.214 495.451C410.714 524.351 417.214 554.351 433.814 578.351C453.414 606.751 484.714 625.851 517.714 634.951C587.314 654.251 661.914 627.951 718.514 586.951C747.914 565.651 775.414 539.651 792.514 507.151C798.114 496.551 802.714 485.051 806.114 473.151C805.914 475.751 805.614 478.351 805.314 480.951C805.314 480.851 804.914 483.751 804.814 484.251C804.514 485.951 804.214 487.551 803.914 489.251C803.114 493.351 802.114 497.351 800.914 501.251C799.914 504.851 798.714 508.351 797.414 511.851C797.114 512.551 796.914 513.251 796.614 513.951C796.514 514.151 796.114 515.151 795.914 515.651C795.614 516.251 795.214 517.251 795.114 517.451C794.614 518.651 794.014 519.751 793.414 520.951C789.714 528.551 785.314 535.851 780.414 542.751C770.214 557.151 756.914 571.751 744.814 585.751C693.214 645.351 638.114 701.851 587.014 761.951C534.314 823.951 482.514 886.751 429.214 948.151C422.614 955.851 415.914 963.451 409.214 971.051C402.814 978.351 401.514 990.251 409.214 997.351C416.214 1003.75 428.714 1005.25 435.514 997.351C488.914 935.451 540.614 872.051 592.814 809.051C618.114 778.451 643.614 748.051 669.814 718.251C696.014 688.551 722.514 659.151 748.314 629.251C761.114 614.451 773.714 599.451 785.914 584.251C797.914 569.451 809.914 554.551 818.214 537.351C829.314 514.451 834.414 489.851 835.014 464.751C849.614 504.451 880.514 535.251 917.314 555.451C922.714 558.451 927.514 550.251 922.114 547.151C889.414 528.151 861.014 500.351 847.914 464.151C843.714 452.551 841.114 440.451 840.114 428.251C842.414 437.351 846.814 445.851 853.314 453.451C873.114 476.351 907.914 477.951 935.814 480.451C942.514 481.051 949.214 481.651 955.914 482.451C958.014 482.751 959.914 482.251 961.414 481.351C969.514 500.851 985.714 516.251 1007.41 521.951C1022.11 525.851 1037.11 524.851 1050.91 518.451C1058.71 514.751 1065.31 509.351 1071.11 503.051C1069.21 525.251 1066.81 547.351 1063.51 568.451C1059.21 596.251 1053.11 623.551 1046.31 650.851C1039.81 677.051 1033.71 703.251 1027.01 729.351C1023.21 744.051 1019.31 758.651 1014.91 773.051C1010.31 774.951 1006.61 778.651 1005.31 783.851C1003.61 790.651 1000.21 796.851 998.114 803.551C995.414 812.651 995.314 823.351 1000.71 831.451C1008.81 843.651 1026.61 841.351 1031.21 827.451C1039.91 801.351 1048.21 775.151 1055.21 748.551C1062.11 722.351 1068.21 696.051 1074.51 669.751C1081.21 642.351 1087.81 615.051 1092.41 587.151C1097.11 558.351 1100.41 529.351 1102.81 500.251C1104.11 484.551 1105.21 468.751 1106.11 453.051C1106.51 445.851 1106.91 438.651 1107.51 431.551C1107.81 428.051 1108.11 425.151 1108.41 423.251C1109.01 419.151 1109.81 415.151 1110.71 411.151C1113.11 402.451 1108.71 392.951 1100.11 390.951ZM641.514 319.951C641.214 320.051 641.114 320.051 641.514 319.951ZM666.814 320.251C666.114 320.151 664.614 319.851 666.814 320.251ZM473.514 582.251C473.114 581.951 472.614 581.651 473.514 582.251ZM541.314 610.551C541.014 610.551 540.814 610.451 541.314 610.551ZM743.314 517.251C743.814 516.551 743.714 516.851 743.314 517.251ZM1033.11 343.751C1033.01 343.851 1032.91 343.951 1032.71 344.051C1031.91 344.851 1032.51 344.251 1033.11 343.751ZM1050.91 324.951C1050.91 325.651 1050.91 325.351 1050.91 324.951ZM966.914 410.151C960.014 423.251 956.014 438.151 956.214 452.951C956.214 455.551 956.414 458.051 956.714 460.651C943.714 458.751 929.714 457.651 918.014 455.851C911.114 454.751 904.414 453.051 897.814 450.651C897.214 450.451 894.414 449.251 894.814 449.451C893.514 448.851 892.214 448.251 891.014 447.651C889.614 446.951 888.314 446.151 887.014 445.351C886.314 444.951 885.714 444.551 885.114 444.151C884.814 443.951 883.714 443.151 883.314 442.951C881.214 441.251 879.414 439.251 877.514 437.351C877.314 437.151 877.014 436.851 876.814 436.551C876.614 436.251 876.314 435.851 876.114 435.551C875.114 434.051 874.214 432.551 873.314 430.951C872.914 430.251 872.614 429.551 872.214 428.751C871.514 426.851 870.914 424.951 870.414 422.951C870.314 422.251 870.114 421.651 870.014 420.951C870.014 420.751 870.014 420.551 870.014 420.351C870.014 418.351 870.114 416.251 870.114 414.251C870.114 414.251 870.114 414.251 870.114 414.151C870.214 413.351 870.414 412.551 870.514 411.651C870.814 409.851 871.314 408.051 871.814 406.251C872.314 404.451 873.114 402.651 873.614 400.851C873.614 400.751 873.614 400.651 873.714 400.651C874.214 399.551 874.714 398.551 875.214 397.451C877.114 393.651 879.314 390.051 881.614 386.551C882.714 384.851 883.914 383.251 885.114 381.651C885.214 381.551 885.214 381.551 885.314 381.451C886.114 380.551 886.914 379.551 887.714 378.551C893.014 372.251 898.614 366.351 904.914 360.951C905.214 360.651 906.514 359.751 907.614 358.951C907.114 359.251 906.814 359.151 907.914 358.451C908.214 358.251 908.514 358.051 908.814 357.851C908.914 357.751 909.014 357.651 909.014 357.551C909.014 357.651 909.014 357.751 909.014 357.751C909.914 357.151 910.814 356.551 911.714 356.051C919.114 351.651 926.914 348.151 934.814 344.651C939.614 342.451 944.314 340.351 949.114 338.251C949.614 338.051 950.014 337.851 950.514 337.651C952.014 337.051 953.514 336.451 954.914 335.851C957.814 334.751 960.614 333.651 963.514 332.551C974.914 328.351 986.514 324.351 998.314 321.151C1003.91 319.651 1009.51 318.351 1015.31 317.251C1016.61 317.051 1017.81 316.851 1019.11 316.651C1019.11 316.651 1019.11 316.651 1019.21 316.651C1019.71 316.551 1020.21 316.551 1020.71 316.451C1023.41 316.151 1026.11 315.951 1028.81 315.951C1031.01 315.951 1033.31 315.951 1035.51 316.051C1036.21 316.051 1036.91 316.151 1037.61 316.251C1037.91 316.351 1039.81 316.651 1040.31 316.751C1041.91 317.151 1043.51 317.551 1045.01 318.151C1045.31 318.251 1046.01 318.551 1046.31 318.751C1047.21 319.251 1048.01 319.751 1048.81 320.351C1048.91 320.451 1049.01 320.551 1049.11 320.651C1048.91 320.151 1049.01 319.651 1049.21 320.651V320.751C1049.31 320.851 1049.41 320.851 1049.41 320.951C1050.61 321.851 1050.61 321.951 1049.41 321.051H1049.31C1049.51 321.351 1049.71 321.651 1049.81 321.751C1050.01 322.151 1050.41 323.051 1050.61 323.351C1050.81 324.051 1050.91 324.551 1050.91 324.751C1050.51 325.451 1049.91 326.651 1050.01 326.451C1049.01 328.051 1048.81 328.051 1048.01 329.051C1045.91 331.651 1043.51 334.451 1040.31 337.451C1038.11 339.451 1035.91 341.351 1033.61 343.251C1033.51 343.351 1033.01 343.751 1031.91 344.651C1031.11 345.351 1030.21 345.951 1029.41 346.751C1027.51 348.451 1025.61 350.251 1023.61 351.851C1016.81 357.751 1009.71 363.451 1002.81 369.251C989.214 380.951 975.414 393.951 966.914 410.151ZM1021.11 490.851C1021.01 490.851 1021.01 490.851 1021.01 490.851H1021.11ZM1022.11 491.051C1021.91 491.051 1021.71 490.951 1021.61 490.951C1022.61 491.051 1024.61 491.451 1022.11 491.051Z" fill="#ccc"/>
<path d="M990.614 469.551C990.614 469.451 990.414 469.151 990.114 468.451V468.551C990.314 468.851 990.414 469.151 990.614 469.551Z" fill="#ccc"/>
<path d="M909.014 357.851L908.914 357.951C908.714 358.251 908.214 358.651 907.714 359.051C908.114 358.851 908.814 358.351 909.014 357.851Z" fill="#ccc"/>
<path d="M1113.71 346.851C1102.81 344.251 1093.11 352.151 1085.61 358.951C1081.51 362.751 1082.71 369.751 1087.31 372.451C1091.81 375.151 1098.81 372.751 1099.91 367.351C1100.61 364.151 1101.11 362.951 1103.91 361.051C1104.81 360.451 1105.81 359.851 1106.81 359.451C1107.61 362.951 1108.71 366.351 1110.71 369.451C1112.91 372.951 1118.31 373.251 1120.41 369.451C1125.31 360.951 1124.81 349.551 1113.71 346.851Z" fill="#ccc"/>
</svg>
