<?xml version="1.0" encoding="utf-8"?>
<!-- Generator: Adobe Illustrator 23.0.0, SVG Export Plug-In . SVG Version: 6.00 Build 0)  -->
<svg version="1.1" id="Layer_1" width="auto" height="100" xmlns="http://www.w3.org/2000/svg" xmlns:xlink="http://www.w3.org/1999/xlink" x="0px" y="0px"
	 viewBox="0 0 1920 1080" style="enable-background:new 0 0 1920 1080;" xml:space="preserve">
<g>
	<path fill="#222121" d="M1011.4,423.8c-3,5-4.8,7.5-6.2,10.1c-25.6,49.3-52.1,98.2-70.4,151c-3.3,9.6-8.8,18.5-13.8,27.3
		c-4.3,7.5-10.9,12.2-19.9,10c-8.2-2-10.8-8.6-12.2-16.5c-5.5-30.9-1.1-61.4,5-91.3c12.1-59.1,25.9-117.8,39.5-176.5
		c2.1-9.1,6.2-18.2,11.3-26.1c2.5-3.8,9.9-7.2,14.2-6.4c4.3,0.9,10.1,7,10.6,11.4c1.5,12.2,5.2,25.9-9.6,34.1
		c-1.9,1-3.1,4.1-3.6,6.4c-9.7,40.3-19.2,80.7-28.7,121.1c-0.1,0.6,0.2,1.2,0.7,4c2.7-4.8,4.6-8.2,6.6-11.5
		c24.8-40.6,49.3-81.4,74.5-121.7c6.4-10.2,14.9-19.2,23.2-28c13.1-13.9,30.3-9.4,36.4,8.8c5.3,15.7,2.2,31.3-1.2,46.4
		c-9.8,43.5-10,87.5-8.1,131.6c0.3,7.8,4.2,16.2,8.7,22.8c8.6,12.6,18.6,24.3,28.3,36.1c4.7,5.7,8.1,11.7,2.4,17.8
		c-5.8,6.3-12.6,3.3-17.8-1.6c-18.9-17.5-37.9-35-56.3-53.2c-11.6-11.5-17.4-25.9-16.6-42.5c0.8-18.5,1.8-37,2.6-55.5
		C1011.5,430.3,1011.4,428.5,1011.4,423.8z"/>
	<path fill="#222121" d="M1529,224.2c-0.4,4.9-0.2,9.4-1.2,13.7c-1.8,8.5-9.2,14-17.3,13.8c-8-0.2-15.3-6.4-16.5-14.8c-2.8-20.6-5.5-41.1-7.6-61.8
		c-1.1-10.8,5.3-19,14.6-20.5c9.7-1.6,18.5,4.6,20.4,15.9C1524.4,188.4,1526.5,206.5,1529,224.2z"/>
	<path fill="#222121" d="M1271.6,100.9c-34.2-2.5-68.2-2-102.3,3.4c-85.4,13.8-169.1,34.1-250.1,64.4c-65.9,24.6-131,51-192.9,85
		c-2.3,1.2-6.1,1.5-8.4,0.5c-9.7-4.4-13-2.8-17.8,6.8c-2.5,5-6.5,10.3-11.2,13c-44.7,26.2-88.6,53.5-129.1,85.9
		c-60.2,48.3-118,98.9-162.4,163.2c-39,56.4-51.7,117.3-31.4,182.9c7.5,24.1,20.4,46.8,32.7,69.2c40.2,73.2,88.5,140.5,150.3,197.3
		c19.1,17.5,39.2,34.2,64.7,41.7c31,9.1,53.9-5.1,59.2-36.1c2.6-15.4,5.5-30.9,6.1-46.4c2.1-57.1,3-114.3,4.9-171.5
		c1.8-54.3,3.7-108.6,6.7-162.8c2.3-41.1,6.7-82.2,10-123.2c4.1-51.6,7.9-103.2,12.4-154.8c0.4-4.5,4.2-10.3,8-12.5
		c20-11.4,40.2-22.5,61-32.3c124.7-59.3,254.6-103,390.7-127.3c27.7-5,55.5-9,86.5-5.3c-4.4,5.8-7.1,10.5-10.8,14.1
		c-23.2,22.8-46.7,45.5-70,68.2c-4.8,4.7-10.9,9.7-4.6,16.9c5.7,6.4,11.2,2.2,16.6-2c29.7-22.7,59.1-45.8,89.6-67.3
		c11.7-8.2,18.5-17.9,21.4-31.3C1306.2,118.8,1293.8,102.5,1271.6,100.9z M683.1,384.9c-9.9,107.4-26.6,214.4-21.8,322.8
		c2.5,55.8,5.7,111.7,5.8,167.6c0.1,34.9-4.5,69.9-8.2,104.8c-1.6,15.2-12.5,21.6-25.1,13.7c-18.8-11.8-37.4-24.8-53.1-40.3
		C507,880.7,450.2,796.2,414,699c-18.7-50.2-12-99.5,16.6-145.1c34.6-55.1,81.3-99,131.3-139.8c37.2-30.4,75.7-58.7,117-83.2
		c2.9-1.7,5.8-3.3,10.3-5.9C687,346.4,684.8,365.6,683.1,384.9z"/>
	<path fill="#222121" d="M1504.2,304.2c-12.7-7.4-28.3-3.5-36.6,10c-4,6.5-7,13.7-9.4,20.9c-13.4,40.7-26.4,81.5-39.6,122.2
		c-0.9,2.8-1.9,5.6-3.4,9.8c-12.1-13.7-22.7-25.7-26.1-42.2c15.2-5.9,17-10,10.6-25c-3.1-7.3-6.4-14.6-10.5-21.3
		c-14.5-23.7-31.9-26.3-52.9-8.1c-19.8,17.2-35,38-47.5,60.8c-11.2,20.5-17.5,42.3-15,66.7c-28.2,5.2-55.4,10.2-82.7,15.2
		c-0.4-1-0.8-2-1.2-3c18.1-34,35.7-68.4,60.2-98.5c13.3-16.3,28.3-31.3,42.4-46.9c8-8.8,8.8-17.8,2.4-23.8
		c-6.2-5.8-14.5-4.6-22.8,3.6c-12.7,12.6-25.5,25.1-37.9,38c-18.4,19-36.5,38.3-54.8,57.5c-0.8-0.4-1.6-0.9-2.4-1.3
		c9.3-23.7,18.7-47.3,27.8-71.1c15.3-39.9,30.6-79.8,45.4-119.9c2.6-7,3.5-15,3.2-22.5c-0.1-3.7-4.7-7.2-7.2-10.8
		c-3.3,2.8-8,5-9.6,8.6c-13,29.5-24.9,59.4-38.1,88.8c-31,68.8-61.8,137.6-79.7,211.2c-6.2,25.3-9.4,51.4-13,77.3
		c-0.6,4.6,2.7,11.8,6.5,14.3c3.4,2.2,10.7,1,14.9-1.3c5.3-3,10.4-7.8,13.6-13.1c10.8-18.1,20.3-36.9,31-55
		c2.2-3.8,6.9-7.6,11.2-8.6c30.1-7.1,60.4-13.1,90.4-20.2c6.5-1.5,10.6-0.4,15.2,3.9c11.3,10.5,24.8,14.4,38.7,7.1
		c7.9-4.1,15.3-10.9,20.4-18.2c9.4-13.4,16.9-28.2,25-42c7.6,8.1,15.7,18.1,25.3,26.3c6.5,5.5,8.4,10,6.9,18.6
		c-5,29-9.2,58.1-12.7,87.2c-5.2,42.4,4.6,83.9,8.9,125.7c0.6,6.2,2,12,9.4,12.2c7.9,0.2,9.3-6,10.5-12.3
		c4.1-21.6,8.5-43.2,12.7-64.8c7.1-36.7,14-73.5,21.2-110.1c2-10.4,13.3-18.9,6-31.1c11.7-61.3,24.1-122.3,52.7-178.6
		C1520.7,326.4,1516.5,311.4,1504.2,304.2z M1321.8,495.7c-2.7,3.9-8.2,8.7-11.8,8.1c-6.5-1-9.8-8-9-15.3c1.1-9.7,2-19.7,5-28.8
		c7.6-23.6,20.3-44,36.1-62.4C1340.4,431.5,1342.2,466.4,1321.8,495.7z"/>
</g>
</svg>
